<svg width="93" height="93" viewBox="0 0 93 93" fill="none" xmlns="http://www.w3.org/2000/svg">
<circle cx="46.5" cy="46.5" r="46" stroke="#28D9EC"/>
<path d="M40.793 47.5157C41.3628 47.5157 41.8247 47.049 41.8247 46.4733C41.8247 45.8976 41.3628 45.4309 40.793 45.4309C40.2232 45.4309 39.7612 45.8976 39.7612 46.4733C39.7612 47.049 40.2232 47.5157 40.793 47.5157Z" fill="#9B6AFA"/>
<path d="M53.2066 47.5157C53.7764 47.5157 54.2383 47.049 54.2383 46.4733C54.2383 45.8976 53.7764 45.4309 53.2066 45.4309C52.6367 45.4309 52.1748 45.8976 52.1748 46.4733C52.1748 47.049 52.6367 47.5157 53.2066 47.5157Z" fill="#9B6AFA"/>
<path d="M57.4964 63.0001H36.5036C35.1232 63.0001 34 61.8653 34 60.4707V42.9744C34 41.5798 35.1232 40.4451 36.5036 40.4451H57.4964C58.8768 40.4451 60 41.5798 60 42.9744V60.4707C60 61.8653 58.8768 63.0001 57.4964 63.0001ZM36.5036 41.5924C35.7495 41.5924 35.1357 42.2126 35.1357 42.9744V60.4707C35.1357 61.2325 35.7495 61.8527 36.5036 61.8527H57.4964C58.2505 61.8527 58.8643 61.2325 58.8643 60.4707V42.9744C58.8643 42.2126 58.2505 41.5924 57.4964 41.5924H36.5036Z" fill="#9B6AFA"/>
<path d="M53.2064 47.047C52.8929 47.047 52.6385 46.79 52.6385 46.4733V33.216C52.6385 31.5242 51.2757 30.1474 49.6012 30.1474H44.3981C42.7236 30.1474 41.3608 31.5242 41.3608 33.216V46.4733C41.3608 46.79 41.1064 47.047 40.7929 47.047C40.4795 47.047 40.2251 46.79 40.2251 46.4733V33.216C40.2251 30.8914 42.0972 29 44.3981 29H49.6012C51.902 29 53.7742 30.8914 53.7742 33.216V46.4733C53.7742 46.79 53.5198 47.047 53.2064 47.047Z" fill="#9B6AFA"/>
<path d="M75.3779 45.9441C75.238 38.1658 72.0753 30.8811 66.4749 25.4327C60.8745 19.9843 53.5063 17.0241 45.7263 17.0975C37.9462 17.1709 30.6876 20.2693 25.2861 25.8199L23.3458 23.9323C22.9115 23.5098 22.1864 23.7119 22.0401 24.2968L21.1215 27.9808L20.2029 31.6648C20.0574 32.2489 20.6003 32.7771 21.181 32.6164L24.8384 31.5967L28.4957 30.5771C29.0756 30.4156 29.2584 29.6844 28.8241 29.2618L26.8838 27.3743C31.8733 22.2456 38.58 19.3838 45.7664 19.3152C52.9527 19.2466 59.7607 21.9823 64.9347 27.0159C70.1087 32.0494 73.03 38.7788 73.16 45.965C73.2899 53.1513 70.613 59.9335 65.6228 65.063C60.6326 70.1925 53.9266 73.055 46.7395 73.1229C39.5523 73.1907 32.7452 70.4557 27.5711 65.4222C27.1304 64.9934 26.4277 65 26.0026 65.437C25.5775 65.8739 25.5902 66.5766 26.0309 67.0054C31.6314 72.4537 38.9995 75.414 46.7796 75.3406C54.5596 75.2671 61.8183 72.1688 67.2197 66.6166C72.6212 61.0644 75.5186 53.7232 75.3779 45.9441Z" fill="#9B6AFA"/>
</svg>
