<svg width="93" height="93" viewBox="0 0 93 93" fill="none" xmlns="http://www.w3.org/2000/svg">
<circle cx="46.5" cy="46.5" r="46" stroke="#28D9EC"/>
<g clip-path="url(#clip0_395_215)">
<path d="M46.3689 71.0002C46.2826 71.0002 46.1973 70.9881 46.1139 70.9641C40.6511 69.4022 36.2025 66.3292 32.8926 61.8322C30.2669 58.2642 28.3578 53.8033 27.2174 48.5725C25.2917 39.7321 26.217 31.8429 26.2569 31.5117C26.3144 31.0379 26.7242 30.6863 27.2007 30.6983C32.7461 30.8427 37.5126 29.3437 41.3705 26.2457C44.2605 23.926 45.5326 21.5239 45.5455 21.4998C45.7041 21.1963 46.0165 21.0039 46.3596 21.0011H46.3689C46.7073 21.0011 47.0197 21.1843 47.1829 21.4813C47.2089 21.5276 48.5588 23.9232 51.5118 26.2374C55.4727 29.3409 60.2958 30.8427 65.8448 30.6993C66.3297 30.6882 66.7367 31.0444 66.7905 31.5219C66.8276 31.8531 67.676 39.7423 65.6733 48.5818C64.4884 53.8107 62.5432 58.2707 59.8915 61.8378C56.55 66.3338 52.0867 69.4049 46.6248 70.9659C46.5413 70.99 46.4551 71.002 46.3698 71.002L46.3689 71.0002ZM28.0203 32.5573C27.8414 34.7956 27.5215 41.2903 29.0393 48.2246C30.1269 53.1898 31.9302 57.4055 34.4011 60.7561C37.4088 64.8348 41.4336 67.6441 46.3679 69.1098C51.3125 67.6413 55.3595 64.8237 58.4006 60.732C60.8975 57.3731 62.7351 53.1473 63.8625 48.1709C65.4313 41.2515 65.1745 34.7965 65.0159 32.5564C57.9816 32.524 53.1464 29.8896 50.2917 27.6337C48.4105 26.1467 47.1347 24.645 46.3846 23.6271C45.6633 24.6468 44.4348 26.1449 42.6055 27.6263C39.8166 29.8859 35.0547 32.5258 28.0185 32.5564L28.0203 32.5573Z" fill="#9B6AFA"/>
<path d="M45.0653 53.5126C44.802 53.5126 44.5516 53.4006 44.3755 53.2053L44.2457 53.061L36.3398 44.2881C35.9977 43.9078 36.0282 43.323 36.4093 42.9816C36.7904 42.6402 37.3763 42.6707 37.7185 43.051L45.0356 51.1706L55.2566 38.8223C55.583 38.4282 56.1671 38.3726 56.5621 38.6984C56.9571 39.0241 57.0127 39.607 56.6863 40.0012L45.7801 53.1767C45.6086 53.3839 45.3546 53.507 45.0848 53.5126C45.0783 53.5126 45.0718 53.5126 45.0662 53.5126H45.0653Z" fill="#9B6AFA"/>
</g>
<defs>
<clipPath id="clip0_395_215">
<rect width="41" height="50" fill="white" transform="translate(26 21)"/>
</clipPath>
</defs>
</svg>
