<svg width="93" height="93" viewBox="0 0 93 93" fill="none" xmlns="http://www.w3.org/2000/svg">
<path d="M46.819 64.4411H46.7929C45.2403 64.4397 42.2544 64.2352 39.6969 62.8871C36.6245 61.2685 35.0005 58.4708 35.0005 54.7958C35.0005 54.038 35.6155 53.4229 36.3733 53.4229C37.1311 53.4229 37.7461 54.038 37.7461 54.7958C37.7461 57.4604 38.8032 59.3123 40.9763 60.4586C43.0136 61.5321 45.497 61.6941 46.7957 61.6969C49.1747 61.6996 54.7511 61.1354 55.2192 55.8459C55.6187 51.3404 52.5889 49.8372 47.6125 47.7587C47.2638 47.6132 46.9137 47.4663 46.5637 47.3181C39.4937 44.3116 36.6341 41.1706 37.0034 36.8175C37.4963 31.0036 43.4227 29.4153 46.4881 29.3864C48.7643 29.3645 50.715 29.7242 52.2828 30.4545C54.8403 31.6433 56.3422 33.8069 56.6263 36.7131C56.7005 37.4682 56.1486 38.1395 55.3936 38.2122C54.6399 38.2891 53.9672 37.7345 53.8931 36.9794C53.7036 35.041 52.7976 33.7218 51.1255 32.9434C49.9298 32.3874 48.3771 32.1128 46.5129 32.1321C45.4311 32.1417 43.7768 32.4204 42.3807 33.174C40.7498 34.054 39.8863 35.3211 39.7394 37.0495C39.4237 40.7684 43.3499 42.9676 47.6386 44.7921C47.9831 44.939 48.3277 45.0831 48.6709 45.2259C53.3014 47.1616 58.551 49.3553 57.9538 56.0889C57.763 58.236 56.8323 60.2019 55.3304 61.6268C53.3591 63.4952 50.4954 64.4438 46.8176 64.4438L46.819 64.4411Z" fill="#9B6AFA"/>
<path d="M46.4998 32.1305C45.742 32.1305 45.127 31.5155 45.127 30.7577V24.3728C45.127 23.615 45.742 23 46.4998 23C47.2575 23 47.8726 23.615 47.8726 24.3728V30.7577C47.8726 31.5155 47.2575 32.1305 46.4998 32.1305Z" fill="#9B6AFA"/>
<path d="M46.5002 70.8277C45.7425 70.8277 45.1274 70.2127 45.1274 69.4549V63.07C45.1274 62.3122 45.7425 61.6971 46.5002 61.6971C47.258 61.6971 47.8731 62.3122 47.8731 63.07V69.4549C47.8731 70.2127 47.258 70.8277 46.5002 70.8277Z" fill="#9B6AFA"/>
<circle cx="46.5" cy="46.5" r="46" stroke="#28D9EC"/>
</svg>
