<svg width="93" height="93" viewBox="0 0 93 93" fill="none" xmlns="http://www.w3.org/2000/svg">
<circle cx="46.5" cy="46.5" r="46" stroke="#28D9EC"/>
<rect x="20.5" y="35.5" width="52" height="22" rx="2.5" stroke="#9B6AFA"/>
<path d="M63.0018 48.844L64.2478 47.29L62.3018 47.416V46.142L64.2478 46.254L63.0018 44.7L64.2338 44L65.1158 45.778L65.9978 44L67.2298 44.7L65.9838 46.254L67.9298 46.142V47.416L65.9838 47.29L67.2298 48.844L65.9978 49.558L65.1158 47.766L64.2338 49.558L63.0018 48.844Z" fill="#9B6AFA"/>
<path d="M53.9261 48.844L55.1721 47.29L53.2261 47.416V46.142L55.1721 46.254L53.9261 44.7L55.1581 44L56.0401 45.778L56.9221 44L58.1541 44.7L56.9081 46.254L58.8541 46.142V47.416L56.9081 47.29L58.1541 48.844L56.9221 49.558L56.0401 47.766L55.1581 49.558L53.9261 48.844Z" fill="#9B6AFA"/>
<path d="M44.8509 48.844L46.0969 47.29L44.1509 47.416V46.142L46.0969 46.254L44.8509 44.7L46.0829 44L46.9649 45.778L47.8469 44L49.0789 44.7L47.8329 46.254L49.7789 46.142V47.416L47.8329 47.29L49.0789 48.844L47.8469 49.558L46.9649 47.766L46.0829 49.558L44.8509 48.844Z" fill="#9B6AFA"/>
<path d="M35.7752 48.844L37.0212 47.29L35.0752 47.416V46.142L37.0212 46.254L35.7752 44.7L37.0072 44L37.8892 45.778L38.7712 44L40.0032 44.7L38.7572 46.254L40.7032 46.142V47.416L38.7572 47.29L40.0032 48.844L38.7712 49.558L37.8892 47.766L37.0072 49.558L35.7752 48.844Z" fill="#9B6AFA"/>
<path d="M26.7 48.844L27.946 47.29L26 47.416V46.142L27.946 46.254L26.7 44.7L27.932 44L28.814 45.778L29.696 44L30.928 44.7L29.682 46.254L31.628 46.142V47.416L29.682 47.29L30.928 48.844L29.696 49.558L28.814 47.766L27.932 49.558L26.7 48.844Z" fill="#9B6AFA"/>
</svg>
