<?xml version="1.0" standalone="no"?>
<!DOCTYPE svg PUBLIC "-//W3C//DTD SVG 20010904//EN"
 "http://www.w3.org/TR/2001/REC-SVG-20010904/DTD/svg10.dtd">
<svg version="1.0" xmlns="http://www.w3.org/2000/svg"
 width="356.000000pt" height="258.000000pt" viewBox="0 0 356.000000 258.000000"
 preserveAspectRatio="xMidYMid meet">

<g transform="translate(0.000000,258.000000) scale(0.100000,-0.100000)"
fill="#000000" stroke="none">
<path d="M1210 1509 l0 -1060 23 6 c117 35 208 110 252 208 41 91 45 182 45
1070 l0 837 -160 0 -160 0 0 -1061z"/>
<path d="M2423 2183 l-362 -388 -1 -330 0 -329 48 46 47 47 354 -595 354 -594
333 0 334 0 -94 142 c-51 79 -281 426 -510 772 l-417 629 128 131 c70 72 253
259 408 416 154 157 314 320 355 363 l74 77 -344 0 -345 0 -362 -387z"/>
</g>
</svg>
